{
	"asset":{
		"generator":"Khronos glTF Blender I/O v4.1.63",
		"version":"2.0"
	},
	"extensionsUsed":[
		"KHR_materials_transmission"
	],
	"scene":0,
	"scenes":[
		{
			"name":"Scene",
			"nodes":[
				0,
				1,
				2,
				3
			]
		}
	],
	"nodes":[
		{
			"mesh":0,
			"name":"Obj Highlight.01"
		},
		{
			"mesh":1,
			"name":"Grass",
			"scale":[
				5.9826531410217285,
				5.9826531410217285,
				5.9826531410217285
			],
			"translation":[
				0,
				-0.0139242485165596,
				0
			]
		},
		{
			"mesh":2,
			"name":"House",
			"scale":[
				0.3682752847671509,
				0.3682752847671509,
				0.3682752847671509
			],
			"translation":[
				0,
				-0.020235344767570496,
				0
			]
		},
		{
			"mesh":3,
			"name":"ONJ Inside",
			"scale":[
				0.027306700125336647,
				0.10887351632118225,
				0.027306700125336647
			],
			"translation":[
				0.2077520787715912,
				0.12180870026350021,
				0.23036280274391174
			]
		}
	],
	"animations":[
		{
			"channels":[
				{
					"sampler":0,
					"target":{
						"node":0,
						"path":"rotation"
					}
				}
			],
			"name":"CircleAction",
			"samplers":[
				{
					"input":32,
					"interpolation":"LINEAR",
					"output":33
				}
			]
		}
	],
	"materials":[
		{
			"alphaMode":"BLEND",
			"doubleSided":true,
			"emissiveFactor":[
				0,
				1,
				0.889538049697876
			],
			"name":"Light Gradient",
			"pbrMetallicRoughness":{
				"baseColorFactor":[
					0.0645679235458374,
					0.8808504343032837,
					1,
					1
				],
				"baseColorTexture":{
					"index":0
				},
				"metallicFactor":0,
				"roughnessFactor":0.5
			}
		},
		{
			"doubleSided":true,
			"name":"GRASS",
			"pbrMetallicRoughness":{
				"baseColorFactor":[
					0.1267712265253067,
					0.3485085070133209,
					0.028458910062909126,
					1
				],
				"metallicFactor":0
			}
		},
		{
			"doubleSided":true,
			"name":"House",
			"pbrMetallicRoughness":{
				"baseColorFactor":[
					0.8004660606384277,
					0.5887045860290527,
					0.33264780044555664,
					1
				],
				"metallicFactor":0,
				"roughnessFactor":0.800000011920929
			}
		},
		{
			"doubleSided":true,
			"name":"Roof",
			"pbrMetallicRoughness":{
				"baseColorFactor":[
					0.800133466720581,
					0.07050643116235733,
					0.048971839249134064,
					1
				],
				"metallicFactor":0,
				"roughnessFactor":0.5
			}
		},
		{
			"doubleSided":true,
			"name":"Frames",
			"pbrMetallicRoughness":{
				"baseColorFactor":[
					0.055563535541296005,
					0.0304042249917984,
					0.01834118738770485,
					1
				],
				"metallicFactor":0,
				"roughnessFactor":0.5
			}
		},
		{
			"doubleSided":true,
			"name":"Gold",
			"pbrMetallicRoughness":{
				"baseColorFactor":[
					0.8001105785369873,
					0.5238969922065735,
					0.12990298867225647,
					1
				],
				"roughnessFactor":0.10000000149011612
			}
		},
		{
			"alphaMode":"BLEND",
			"doubleSided":true,
			"extensions":{
				"KHR_materials_transmission":{
					"transmissionFactor":1
				}
			},
			"name":"Glass",
			"pbrMetallicRoughness":{
				"metallicFactor":0,
				"roughnessFactor":0
			}
		}
	],
	"meshes":[
		{
			"name":"Circle",
			"primitives":[
				{
					"attributes":{
						"POSITION":0,
						"NORMAL":1,
						"TEXCOORD_0":2
					},
					"indices":3,
					"material":0
				}
			]
		},
		{
			"name":"Plane.001",
			"primitives":[
				{
					"attributes":{
						"POSITION":4,
						"NORMAL":5,
						"TEXCOORD_0":6
					},
					"indices":7,
					"material":1
				}
			]
		},
		{
			"name":"Cube.001",
			"primitives":[
				{
					"attributes":{
						"POSITION":8,
						"NORMAL":9,
						"TEXCOORD_0":10
					},
					"indices":11,
					"material":2
				},
				{
					"attributes":{
						"POSITION":12,
						"NORMAL":13,
						"TEXCOORD_0":14
					},
					"indices":15,
					"material":3
				},
				{
					"attributes":{
						"POSITION":16,
						"NORMAL":17,
						"TEXCOORD_0":18
					},
					"indices":19,
					"material":4
				},
				{
					"attributes":{
						"POSITION":20,
						"NORMAL":21,
						"TEXCOORD_0":22
					},
					"indices":23,
					"material":5
				},
				{
					"attributes":{
						"POSITION":24,
						"NORMAL":25,
						"TEXCOORD_0":26
					},
					"indices":27,
					"material":6
				}
			]
		},
		{
			"name":"Cube.002",
			"primitives":[
				{
					"attributes":{
						"POSITION":28,
						"NORMAL":29,
						"TEXCOORD_0":30
					},
					"indices":31
				}
			]
		}
	],
	"textures":[
		{
			"sampler":0,
			"source":0
		}
	],
	"images":[
		{
			"mimeType":"image/png",
			"name":"Gradient_01",
			"uri":"Gradient_01.png"
		}
	],
	"accessors":[
		{
			"bufferView":0,
			"componentType":5126,
			"count":34,
			"max":[
				1,
				0,
				1
			],
			"min":[
				-1,
				0,
				-1
			],
			"type":"VEC3"
		},
		{
			"bufferView":1,
			"componentType":5126,
			"count":34,
			"type":"VEC3"
		},
		{
			"bufferView":2,
			"componentType":5126,
			"count":34,
			"type":"VEC2"
		},
		{
			"bufferView":3,
			"componentType":5123,
			"count":96,
			"type":"SCALAR"
		},
		{
			"bufferView":4,
			"componentType":5126,
			"count":4,
			"max":[
				1,
				0,
				1
			],
			"min":[
				-1,
				0,
				-1
			],
			"type":"VEC3"
		},
		{
			"bufferView":5,
			"componentType":5126,
			"count":4,
			"type":"VEC3"
		},
		{
			"bufferView":6,
			"componentType":5126,
			"count":4,
			"type":"VEC2"
		},
		{
			"bufferView":7,
			"componentType":5123,
			"count":6,
			"type":"SCALAR"
		},
		{
			"bufferView":8,
			"componentType":5126,
			"count":499,
			"max":[
				0.9525966644287109,
				1.316160798072815,
				1.062425971031189
			],
			"min":[
				-0.9525966644287109,
				0.028905991464853287,
				-1.062425971031189
			],
			"type":"VEC3"
		},
		{
			"bufferView":9,
			"componentType":5126,
			"count":499,
			"type":"VEC3"
		},
		{
			"bufferView":10,
			"componentType":5126,
			"count":499,
			"type":"VEC2"
		},
		{
			"bufferView":11,
			"componentType":5123,
			"count":960,
			"type":"SCALAR"
		},
		{
			"bufferView":12,
			"componentType":5126,
			"count":132,
			"max":[
				1,
				1.3914159536361694,
				1.1185338497161865
			],
			"min":[
				-1,
				0.8726084232330322,
				-1.1185338497161865
			],
			"type":"VEC3"
		},
		{
			"bufferView":13,
			"componentType":5126,
			"count":132,
			"type":"VEC3"
		},
		{
			"bufferView":14,
			"componentType":5126,
			"count":132,
			"type":"VEC2"
		},
		{
			"bufferView":15,
			"componentType":5123,
			"count":384,
			"type":"SCALAR"
		},
		{
			"bufferView":16,
			"componentType":5126,
			"count":188,
			"max":[
				0.7101784348487854,
				0.7188311219215393,
				0.9325919151306152
			],
			"min":[
				-0.1922963559627533,
				0.028938651084899902,
				0.8999999165534973
			],
			"type":"VEC3"
		},
		{
			"bufferView":17,
			"componentType":5126,
			"count":188,
			"type":"VEC3"
		},
		{
			"bufferView":18,
			"componentType":5126,
			"count":188,
			"type":"VEC2"
		},
		{
			"bufferView":19,
			"componentType":5123,
			"count":444,
			"type":"SCALAR"
		},
		{
			"bufferView":20,
			"componentType":5126,
			"count":131,
			"max":[
				0.1633119285106659,
				0.3493833541870117,
				0.9712002277374268
			],
			"min":[
				0.10385418683290482,
				0.32106998562812805,
				0.9308938384056091
			],
			"type":"VEC3"
		},
		{
			"bufferView":21,
			"componentType":5126,
			"count":131,
			"type":"VEC3"
		},
		{
			"bufferView":22,
			"componentType":5126,
			"count":131,
			"type":"VEC2"
		},
		{
			"bufferView":23,
			"componentType":5123,
			"count":264,
			"type":"SCALAR"
		},
		{
			"bufferView":24,
			"componentType":5126,
			"count":96,
			"max":[
				0.6969906091690063,
				0.7056480646133423,
				0.9155286550521851
			],
			"min":[
				0.3963874578475952,
				0.3427288234233856,
				0.9106343984603882
			],
			"type":"VEC3"
		},
		{
			"bufferView":25,
			"componentType":5126,
			"count":96,
			"type":"VEC3"
		},
		{
			"bufferView":26,
			"componentType":5126,
			"count":96,
			"type":"VEC2"
		},
		{
			"bufferView":27,
			"componentType":5123,
			"count":144,
			"type":"SCALAR"
		},
		{
			"bufferView":28,
			"componentType":5126,
			"count":24,
			"max":[
				1,
				1,
				1
			],
			"min":[
				-1,
				-1,
				-1
			],
			"type":"VEC3"
		},
		{
			"bufferView":29,
			"componentType":5126,
			"count":24,
			"type":"VEC3"
		},
		{
			"bufferView":30,
			"componentType":5126,
			"count":24,
			"type":"VEC2"
		},
		{
			"bufferView":31,
			"componentType":5123,
			"count":36,
			"type":"SCALAR"
		},
		{
			"bufferView":32,
			"componentType":5126,
			"count":120,
			"max":[
				5
			],
			"min":[
				0.041666666666666664
			],
			"type":"SCALAR"
		},
		{
			"bufferView":33,
			"componentType":5126,
			"count":120,
			"type":"VEC4"
		}
	],
	"bufferViews":[
		{
			"buffer":0,
			"byteLength":408,
			"byteOffset":0,
			"target":34962
		},
		{
			"buffer":0,
			"byteLength":408,
			"byteOffset":408,
			"target":34962
		},
		{
			"buffer":0,
			"byteLength":272,
			"byteOffset":816,
			"target":34962
		},
		{
			"buffer":0,
			"byteLength":192,
			"byteOffset":1088,
			"target":34963
		},
		{
			"buffer":0,
			"byteLength":48,
			"byteOffset":1280,
			"target":34962
		},
		{
			"buffer":0,
			"byteLength":48,
			"byteOffset":1328,
			"target":34962
		},
		{
			"buffer":0,
			"byteLength":32,
			"byteOffset":1376,
			"target":34962
		},
		{
			"buffer":0,
			"byteLength":12,
			"byteOffset":1408,
			"target":34963
		},
		{
			"buffer":0,
			"byteLength":5988,
			"byteOffset":1420,
			"target":34962
		},
		{
			"buffer":0,
			"byteLength":5988,
			"byteOffset":7408,
			"target":34962
		},
		{
			"buffer":0,
			"byteLength":3992,
			"byteOffset":13396,
			"target":34962
		},
		{
			"buffer":0,
			"byteLength":1920,
			"byteOffset":17388,
			"target":34963
		},
		{
			"buffer":0,
			"byteLength":1584,
			"byteOffset":19308,
			"target":34962
		},
		{
			"buffer":0,
			"byteLength":1584,
			"byteOffset":20892,
			"target":34962
		},
		{
			"buffer":0,
			"byteLength":1056,
			"byteOffset":22476,
			"target":34962
		},
		{
			"buffer":0,
			"byteLength":768,
			"byteOffset":23532,
			"target":34963
		},
		{
			"buffer":0,
			"byteLength":2256,
			"byteOffset":24300,
			"target":34962
		},
		{
			"buffer":0,
			"byteLength":2256,
			"byteOffset":26556,
			"target":34962
		},
		{
			"buffer":0,
			"byteLength":1504,
			"byteOffset":28812,
			"target":34962
		},
		{
			"buffer":0,
			"byteLength":888,
			"byteOffset":30316,
			"target":34963
		},
		{
			"buffer":0,
			"byteLength":1572,
			"byteOffset":31204,
			"target":34962
		},
		{
			"buffer":0,
			"byteLength":1572,
			"byteOffset":32776,
			"target":34962
		},
		{
			"buffer":0,
			"byteLength":1048,
			"byteOffset":34348,
			"target":34962
		},
		{
			"buffer":0,
			"byteLength":528,
			"byteOffset":35396,
			"target":34963
		},
		{
			"buffer":0,
			"byteLength":1152,
			"byteOffset":35924,
			"target":34962
		},
		{
			"buffer":0,
			"byteLength":1152,
			"byteOffset":37076,
			"target":34962
		},
		{
			"buffer":0,
			"byteLength":768,
			"byteOffset":38228,
			"target":34962
		},
		{
			"buffer":0,
			"byteLength":288,
			"byteOffset":38996,
			"target":34963
		},
		{
			"buffer":0,
			"byteLength":288,
			"byteOffset":39284,
			"target":34962
		},
		{
			"buffer":0,
			"byteLength":288,
			"byteOffset":39572,
			"target":34962
		},
		{
			"buffer":0,
			"byteLength":192,
			"byteOffset":39860,
			"target":34962
		},
		{
			"buffer":0,
			"byteLength":72,
			"byteOffset":40052,
			"target":34963
		},
		{
			"buffer":0,
			"byteLength":480,
			"byteOffset":40124
		},
		{
			"buffer":0,
			"byteLength":1920,
			"byteOffset":40604
		}
	],
	"samplers":[
		{
			"magFilter":9729,
			"minFilter":9987
		}
	],
	"buffers":[
		{
			"byteLength":42524,
			"uri":"Test01_2.bin"
		}
	]
}
