{"extensionsUsed" : ["KHR_materials_transmission", "KHR_materials_emissive_strength"], "accessors" : [{"bufferView" : 0, "byteOffset" : 0, "componentType" : 5123, "count" : 7488, "type" : "SCALAR", "max" : [6190], "min" : [0]}, {"bufferView" : 1, "byteOffset" : 0, "componentType" : 5126, "count" : 6191, "type" : "VEC3", "max" : [4.820749759674072, -0.030181124806404114, 4.820749759674072], "min" : [-4.820749759674072, -0.1883223056793213, -4.820749759674072], "name" : "POSITION"}, {"bufferView" : 1, "byteOffset" : 12, "componentType" : 5126, "count" : 6191, "type" : "VEC3", "max" : [0.7414798736572266, 1.0000044107437134, 0.7414798736572266], "min" : [-0.7414798736572266, -1.0000044107437134, -0.7414798736572266], "name" : "NORMAL"}, {"bufferView" : 0, "byteOffset" : 14976, "componentType" : 5123, "count" : 594, "type" : "SCALAR", "max" : [584], "min" : [0]}, {"bufferView" : 2, "byteOffset" : 0, "componentType" : 5126, "count" : 585, "type" : "VEC3", "max" : [5.142025947570801, 0.17122586071491241, 5.129500865936279], "min" : [-5.123581409454346, -4.804190158843994, -5.123847007751465], "name" : "POSITION"}, {"bufferView" : 2, "byteOffset" : 12, "componentType" : 5126, "count" : 585, "type" : "VEC3", "max" : [0.9988597631454468, 0.132200226187706, 0.9982479810714722], "min" : [-0.9992085695266724, -0.9998906850814819, -0.9992772340774536], "name" : "NORMAL"}, {"bufferView" : 0, "byteOffset" : 16164, "componentType" : 5123, "count" : 816, "type" : "SCALAR", "max" : [720], "min" : [0]}, {"bufferView" : 3, "byteOffset" : 0, "componentType" : 5126, "count" : 721, "type" : "VEC3", "max" : [5.128668308258057, 1.0568522214889526, 5.129500865936279], "min" : [-5.123581409454346, -0.39551153779029846, -5.123847007751465], "name" : "POSITION"}, {"bufferView" : 3, "byteOffset" : 12, "componentType" : 5126, "count" : 721, "type" : "VEC3", "max" : [0.7857956290245056, 0.9999793767929077, 0.7955005168914795], "min" : [-0.8767295479774475, 0.44251489639282227, -0.7539881467819214], "name" : "NORMAL"}, {"bufferView" : 0, "byteOffset" : 17796, "componentType" : 5123, "count" : 384, "type" : "SCALAR", "max" : [325], "min" : [0]}, {"bufferView" : 4, "byteOffset" : 0, "componentType" : 5126, "count" : 326, "type" : "VEC3", "max" : [3.8746259212493896, 2.8478195667266846, 4.535933017730713], "min" : [-2.3803794384002686, -0.39551153779029846, -4.442878723144531], "name" : "POSITION"}, {"bufferView" : 4, "byteOffset" : 12, "componentType" : 5126, "count" : 326, "type" : "VEC3", "max" : [0.862947940826416, 0.9938896298408508, 0.8782840967178345], "min" : [-0.9340460896492004, 0.28930073976516724, -0.881293535232544], "name" : "NORMAL"}, {"bufferView" : 0, "byteOffset" : 18564, "componentType" : 5123, "count" : 240, "type" : "SCALAR", "max" : [239], "min" : [0]}, {"bufferView" : 5, "byteOffset" : 0, "componentType" : 5126, "count" : 240, "type" : "VEC3", "max" : [0.6095430850982666, 2.2745041847229004, 7.313108921051025], "min" : [-0.43797850608825684, 1.1730765104293823, 6.211680889129639], "name" : "POSITION"}, {"bufferView" : 5, "byteOffset" : 12, "componentType" : 5126, "count" : 240, "type" : "VEC3", "max" : [0.9920855760574341, 0.9435398578643799, 0.9435199499130249], "min" : [-0.9920855760574341, -0.9435398578643799, -0.9435199499130249], "name" : "NORMAL"}, {"bufferView" : 5, "byteOffset" : 24, "componentType" : 5126, "count" : 240, "type" : "VEC2", "max" : [1, 2], "min" : [0, 1.5276179313659668], "name" : "TEXCOORD_0"}, {"bufferView" : 6, "byteOffset" : 0, "componentType" : 5126, "normalized" : false, "count" : 120, "type" : "SCALAR", "max" : [5], "min" : [0.0416666679084301]}, {"bufferView" : 6, "byteOffset" : 480, "componentType" : 5126, "normalized" : false, "count" : 120, "type" : "VEC3", "max" : [1.2346827983856201, 2.2069530487060547, -0], "min" : [0, 2.2069530487060547, -0]}], "animations" : [{"channels" : [{"sampler" : 0, "target" : {"node" : -1, "path" : "translation"}}], "samplers" : [{"input" : 16, "interpolation" : "LINEAR", "output" : 17}], "name" : "Water ControlAction"}], "asset" : {"generator" : "Aspose.3D 24.1.0", "version" : "2.0"}, "buffers" : [{"uri" : "data:application/octet-stream;base64,", "byteLength" : 251440}], "bufferViews" : [{"buffer" : 0, "byteOffset" : 0, "byteLength" : 19044, "target" : 34963}, {"buffer" : 0, "byteOffset" : 19048, "byteLength" : 179712, "byteStride" : 24, "target" : 34962}, {"buffer" : 0, "byteOffset" : 198764, "byteLength" : 14256, "byteStride" : 24, "target" : 34962}, {"buffer" : 0, "byteOffset" : 213024, "byteLength" : 19584, "byteStride" : 24, "target" : 34962}, {"buffer" : 0, "byteOffset" : 232612, "byteLength" : 9216, "byteStride" : 24, "target" : 34962}, {"buffer" : 0, "byteOffset" : 241832, "byteLength" : 7680, "byteStride" : 32, "target" : 34962}, {"buffer" : 0, "byteOffset" : 249516, "byteLength" : 1920}], "materials" : [{"name" : "Water", "extensions" : {"KHR_materials_transmission" : {"transmissionFactor" : 0.7559055089950562}}, "pbrMetallicRoughness" : {"baseColorFactor" : [0.20805737376213074, 0.8010324239730835, 0.743243932723999, 1], "metallicFactor" : 0.10000000149011612, "roughnessFactor" : 0.3937007784843445}, "emissiveFactor" : [0, 0, 0], "alphaMode" : "OPAQUE", "doubleSided" : true}, {"name" : "Ground", "pbrMetallicRoughness" : {"baseColorFactor" : [0.42233866453170776, 0.23783814907073975, 0.14597833156585693, 1], "metallicFactor" : 0, "roughnessFactor" : 0.8999999761581421}, "emissiveFactor" : [0, 0, 0], "alphaMode" : "OPAQUE", "doubleSided" : true}, {"name" : "Grass", "pbrMetallicRoughness" : {"baseColorFactor" : [0.1325656920671463, 0.22470077872276306, 0.0914880782365799, 1], "metallicFactor" : 0, "roughnessFactor" : 0.5}, "emissiveFactor" : [0, 0, 0], "alphaMode" : "OPAQUE", "doubleSided" : true}, {"name" : "Mountains", "pbrMetallicRoughness" : {"baseColorFactor" : [0.2140314280986786, 0.11934168636798859, 0.04574578255414963, 1], "metallicFactor" : 0, "roughnessFactor" : 0.800000011920929}, "emissiveFactor" : [0, 0, 0], "alphaMode" : "OPAQUE", "doubleSided" : true}, {"name" : "Sun", "extensions" : {"KHR_materials_emissive_strength" : {"emissiveStrength" : 5}}, "pbrMetallicRoughness" : {"baseColorFactor" : [0.8001892566680908, 0.7334617376327515, 0.10009420663118362, 1], "metallicFactor" : 0, "roughnessFactor" : 0.5}, "emissiveFactor" : [1, 0.6955982446670532, 0.022440169006586075], "alphaMode" : "OPAQUE", "doubleSided" : true}], "meshes" : [{"primitives" : [{"attributes" : {"POSITION" : 1, "NORMAL" : 2}, "indices" : 0, "material" : 0, "mode" : 4}]}, {"primitives" : [{"attributes" : {"POSITION" : 4, "NORMAL" : 5}, "indices" : 3, "material" : 1, "mode" : 4}, {"attributes" : {"POSITION" : 7, "NORMAL" : 8}, "indices" : 6, "material" : 2, "mode" : 4}, {"attributes" : {"POSITION" : 10, "NORMAL" : 11}, "indices" : 9, "material" : 3, "mode" : 4}]}, {"primitives" : [{"attributes" : {"POSITION" : 13, "NORMAL" : 14, "TEXCOORD_0" : 15}, "indices" : 12, "material" : 4, "mode" : 4}]}], "nodes" : [{"mesh" : 0, "name" : "Water"}, {"mesh" : 1, "name" : "Island"}, {"matrix" : [1, 0, 0, 0, 0, 1, 0, 0, 0, 0, 1, 0, 0, 1.3759950399398804, 0, 1], "mesh" : 2, "name" : "Sun"}], "scene" : 0, "scenes" : [{"nodes" : [0, 1, 2]}]}